<svg width="4486" height="2815" viewBox="0 0 4486 2815" fill="none" xmlns="http://www.w3.org/2000/svg">
<path d="M4483.36 2814.36H0V0.239995H4483.36V2814.36Z" fill="#FF9A15"/>
<path d="M4483.36 2814.36H0V1360.53H4483.36V2814.36Z" fill="#37AA41"/>
<path d="M0 1872.27H4485.72V925.467H0V1872.27Z" fill="white"/>
<path d="M2397.08 1431.67C2396.56 1435.09 2395.51 1437.73 2394.44 1440.89L2643.21 1556.31L2388.39 1464.6L2386.01 1463.55C2384.96 1466.45 2383.91 1469.09 2382.85 1471.45L2602.37 1629.04L2370.21 1491.75C2367.97 1494.4 2366.25 1496.76 2364.67 1499.4L2547.29 1698.61L2347.55 1516.52C2346.49 1518.11 2344.77 1519.43 2343.59 1521L2486.55 1750.25L2323.83 1535.24C2320.92 1537.08 2318.29 1538.67 2315.52 1540.24L2408.68 1794.01L2294.04 1550.25C2291.81 1550.77 2289.57 1551.83 2286.93 1552.36V1552.88L2330.93 1823.27L2263.75 1560.79L2263.21 1557.91C2259.79 1559.21 2256.49 1559.73 2253.73 1559.73L2241.6 1833.28L2229.48 1562.91V1560.27C2227.91 1560.79 2225.67 1560.79 2223.96 1560.27L2161.76 1826.43L2199.71 1558.68L2200.24 1556.84C2197.08 1556.31 2193.65 1555.25 2190.23 1554.73L2075.07 1802.17L2167.17 1547.35L2167.83 1546.29L2161.23 1543.15L2001.67 1764.76L2139.63 1531.53L2140.16 1530.23C2137.25 1528.65 2135.15 1526.53 2132.51 1524.96L1931.72 1708.36L2114.2 1508.88L2114.85 1508.36C2113.67 1506.77 2111.96 1505.19 2110.91 1503.36L1879.8 1647.24L2096.01 1484.12C2094.29 1481.21 2092.72 1478.59 2091.13 1475.68L1836.24 1568.44L2081.13 1453.01C2080.08 1451.96 2079.41 1450.91 2079.41 1449.33L1812 1493.33L2072.83 1426.67C2072.29 1422.99 2071.76 1419.56 2071.76 1416.13L1801.53 1404.27L2070.05 1391.88C2070.05 1389.77 2070.05 1387.13 2070.59 1384.77L1807.59 1324.15L2073.48 1361.05C2074.55 1357.63 2075.07 1354.45 2076.65 1351.04L1831.84 1237.47L2084.41 1328.37C2085.08 1326.8 2086.13 1324.68 2087.19 1322.84L1866.03 1164.2L2098.77 1302.03C2101.01 1299.39 2102.61 1296.49 2105.37 1293.85L1921.83 1093.04L2121.31 1275.68C2123.03 1273.83 2124.73 1272.25 2126.45 1270.4L1982.96 1040.61L2145.69 1256.16C2148.32 1254.59 2151.75 1252.48 2155.04 1250.91L2061.89 995.813L2176.52 1240.09C2179.41 1239.57 2182.57 1238.52 2185.35 1237.47L2141.73 971.84L2208.53 1231.92C2211.83 1231.4 2215.77 1230.87 2218.95 1230.87L2231.2 961.027L2243.32 1230.35C2245.56 1230.35 2248.32 1230.35 2250.44 1230.87L2311.19 967.88L2273.61 1234.29C2276.92 1234.83 2280.87 1235.87 2284.04 1236.92L2397.75 992.12L2306.16 1245.36C2308.4 1246.43 2310 1247.48 2311.71 1248.53L2471.13 1026.39L2333.31 1259.59L2332.12 1260.64C2334.76 1263.01 2337.53 1265.12 2340.43 1266.72L2542.28 1081.99L2359.13 1282.25L2357.41 1283.84C2359.13 1285.41 2360.71 1286.47 2361.77 1288.32L2594.59 1143.64L2378.37 1306.51L2376.27 1308.08C2377.84 1310.72 2379.43 1313.61 2381.27 1316.52H2381.8L2639.25 1221.91L2393.92 1337.33L2391.03 1338.39C2391.55 1339.96 2392.87 1342.33 2393.39 1344.44L2662.45 1300.44L2399.99 1367.64H2398.8C2399.32 1371.07 2399.99 1374.23 2399.99 1377.65L2672.99 1389.77L2402.75 1401.89H2400.51C2401.04 1404.27 2400.51 1405.85 2400.51 1407.95L2667.45 1469.63L2398.8 1432.2L2397.08 1431.67Z" fill="#2D3A8E"/>
<path d="M2237.53 982.373C2009.44 982.373 1823.87 1167.63 1823.87 1395.84C1823.87 1624.04 2009.44 1809.56 2237.53 1809.56C2465.6 1809.56 2651.12 1624.04 2651.12 1395.84C2651.12 1167.63 2465.6 982.373 2237.53 982.373ZM2237.53 1836.96C1994.16 1836.96 1796.27 1639.05 1796.27 1395.84C1796.27 1152.6 1994.16 954.707 2237.53 954.707C2480.75 954.707 2678.79 1152.6 2678.79 1395.84C2678.79 1639.05 2480.75 1836.96 2237.53 1836.96Z" fill="#2D3A8E"/>
</svg>
