<?xml version="1.0" encoding="UTF-8" standalone="no"?>
<!-- Created with Inkscape (http://www.inkscape.org/) -->

<svg
   version="1.1"
   id="svg2"
   width="666.66669"
   height="666.66669"
   viewBox="0 0 666.66669 666.66669"
   sodipodi:docname="8598078.eps"
   xmlns:inkscape="http://www.inkscape.org/namespaces/inkscape"
   xmlns:sodipodi="http://sodipodi.sourceforge.net/DTD/sodipodi-0.dtd"
   xmlns="http://www.w3.org/2000/svg"
   xmlns:svg="http://www.w3.org/2000/svg">
  <defs
     id="defs6">
    <clipPath
       clipPathUnits="userSpaceOnUse"
       id="clipPath22">
      <path
         d="M 4474.81,3963.07 315.492,3173.25 2851.19,117.289 Z"
         id="path20" />
    </clipPath>
    <clipPath
       clipPathUnits="userSpaceOnUse"
       id="clipPath66">
      <path
         d="m 2017.95,3692.31 c 0,0 139.9,197.52 299.28,14.81 0,0 -39.3,-90.32 -137.98,-106.19 -98.68,-15.88 -161.3,91.38 -161.3,91.38 z"
         id="path64" />
    </clipPath>
    <clipPath
       clipPathUnits="userSpaceOnUse"
       id="clipPath80">
      <path
         d="m 2767.26,3780.79 c 0,0 -182.06,159.5 -294.5,-55.31 0,0 59.25,-78.68 158.91,-71.13 99.67,7.55 135.59,126.44 135.59,126.44 z"
         id="path78" />
    </clipPath>
  </defs>
  <sodipodi:namedview
     id="namedview4"
     pagecolor="#ffffff"
     bordercolor="#000000"
     borderopacity="0.25"
     inkscape:showpageshadow="2"
     inkscape:pageopacity="0.0"
     inkscape:pagecheckerboard="0"
     inkscape:deskcolor="#d1d1d1" />
  <g
     id="g8"
     inkscape:groupmode="layer"
     inkscape:label="ink_ext_XXXXXX"
     transform="matrix(1.3333333,0,0,-1.3333333,0,666.66667)">
    <g
       id="g10"
       transform="scale(0.1)">
      <path
         d="M 5000,0 H 0 V 5000 H 5000 V 0"
         style="fill:#e8e7e8;fill-opacity:1;fill-rule:nonzero;stroke:none"
         id="path12" />
      <path
         d="M 4474.81,3963.07 315.492,3173.25 2851.19,117.289 Z"
         style="fill:#9599d4;fill-opacity:1;fill-rule:nonzero;stroke:none"
         id="path14" />
      <g
         id="g16">
        <g
           id="g18"
           clip-path="url(#clipPath22)">
          <path
             d="m 3539.84,4828.08 c 0,0 -806.64,-845.58 0,-1209.72 681.61,-307.69 -53.98,-1186.23 1144.88,-1163.89 676.91,12.62 296.31,2373.61 -1144.88,2373.61"
             style="fill:#fcd3a6;fill-opacity:1;fill-rule:nonzero;stroke:none"
             id="path24" />
          <path
             d="m 246.43,2830.93 c 0,0 581.48,530.57 800.65,36.83 219.18,-493.74 140.72,-403.31 477.37,-535.48 C 1861.09,2200.1 1416.3,750.879 1024.36,1304.32 632.41,1857.76 -122.246,2289.09 246.43,2830.93"
             style="fill:#6b75c2;fill-opacity:1;fill-rule:nonzero;stroke:none"
             id="path26" />
        </g>
      </g>
      <path
         d="m 966.492,2767.83 -66.996,-20.19 35.246,-60.44 -16.015,-68.11 69.968,0.3 50.975,-47.93 34.73,60.75 66.99,20.18 -35.24,60.45 16.01,68.11 -69.96,-0.3 -50.98,47.92 -34.728,-60.74"
         style="fill:#f79ad1;fill-opacity:1;fill-rule:nonzero;stroke:none"
         id="path28" />
      <path
         d="m 3597.65,2942.57 -42.62,8.11 2.04,-43.33 -28.34,-32.85 38.56,-19.9 14.27,-40.96 36.51,23.44 42.61,-8.12 -2.04,43.33 28.34,32.85 -38.55,19.9 -14.28,40.96 -36.5,-23.43"
         style="fill:#e8e7e8;fill-opacity:1;fill-rule:nonzero;stroke:none"
         id="path30" />
      <path
         d="m 972.844,3174.49 c 0,-26.29 21.312,-47.6 47.606,-47.6 26.29,0 47.6,21.31 47.6,47.6 0,26.29 -21.31,47.6 -47.6,47.6 -26.294,0 -47.606,-21.31 -47.606,-47.6"
         style="fill:#fcd3a6;fill-opacity:1;fill-rule:nonzero;stroke:none"
         id="path32" />
      <path
         d="m 3441.11,3533.83 192.9,-165.99 106.05,123.24 -192.9,165.99 -106.05,-123.24"
         style="fill:#6b75c2;fill-opacity:1;fill-rule:nonzero;stroke:none"
         id="path34" />
      <path
         d="m 1556.93,3252.57 -149.19,-258.41 97.79,-56.46 149.19,258.41 -97.79,56.46"
         style="fill:#e8e7e8;fill-opacity:1;fill-rule:nonzero;stroke:none"
         id="path36" />
      <path
         d="m 4214.59,3760.67 -186.66,-136.56 51.67,-70.64 186.67,136.55 -51.68,70.65"
         style="fill:#f79ad1;fill-opacity:1;fill-rule:nonzero;stroke:none"
         id="path38" />
      <path
         d="m 1969.57,3964.24 c 2.64,-62.43 8.38,-141.55 8.38,-141.55 0,0 -104.39,40.97 -115.48,-143.9 -11.8,-196.49 117.99,-184.96 117.99,-184.96 0,0 29.24,-101.77 72.99,-165.75 54.42,-79.61 127.35,-111.65 127.35,-111.65 l -12.78,-276.02 c 0,0 121.41,-92.36 290.01,-76.89 167.56,24.22 264.72,66.3 264.72,66.3 l -3.02,350.25 c 0,0 63.45,48.14 97.84,138.24 27.64,72.41 32.37,178.19 32.37,178.19 0,0 128.91,19.02 71.67,207.36 -53.86,177.2 -145.83,113.04 -145.83,113.04 0,0 -12.84,78.28 -24.81,139.62 0,0 -46.08,278.97 -424.01,234.34 -377.93,-44.62 -357.39,-326.62 -357.39,-326.62"
         style="fill:#f46ba7;fill-opacity:1;fill-rule:nonzero;stroke:none"
         id="path40" />
      <path
         d="m 2832.5,3668.51 c 0,0 30.59,26.37 16.49,53.58 -14.08,27.22 -38.12,15.56 -42.72,46.17"
         style="fill:none;stroke:#5a3189;stroke-width:7.5;stroke-linecap:round;stroke-linejoin:round;stroke-miterlimit:10;stroke-dasharray:none;stroke-opacity:1"
         id="path42" />
      <path
         d="m 2800.03,3867.02 c 0,0 52.41,32.14 76.42,-70.99"
         style="fill:none;stroke:#5a3189;stroke-width:7.5;stroke-linecap:round;stroke-linejoin:round;stroke-miterlimit:10;stroke-dasharray:none;stroke-opacity:1"
         id="path44" />
      <path
         d="m 1980.65,3567.92 c 0,0 -35.89,18.52 -28.53,48.27 7.37,29.75 33.46,24.01 30.8,54.85"
         style="fill:none;stroke:#5a3189;stroke-width:7.5;stroke-linecap:round;stroke-linejoin:round;stroke-miterlimit:10;stroke-dasharray:none;stroke-opacity:1"
         id="path46" />
      <path
         d="m 1965.99,3768.53 c 0,0 -58.46,19.05 -57.78,-86.84"
         style="fill:none;stroke:#5a3189;stroke-width:7.5;stroke-linecap:round;stroke-linejoin:round;stroke-miterlimit:10;stroke-dasharray:none;stroke-opacity:1"
         id="path48" />
      <path
         d="m 2336.75,3611.37 c 0,0 -47.48,-44 5.19,-72.79"
         style="fill:none;stroke:#5a3189;stroke-width:7.5;stroke-linecap:round;stroke-linejoin:round;stroke-miterlimit:10;stroke-dasharray:none;stroke-opacity:1"
         id="path50" />
      <path
         d="m 2487.02,3555.71 c 44.51,40.26 -11.9,72 -11.9,72 0,0 -37.13,18.44 -39.93,90.33"
         style="fill:none;stroke:#5a3189;stroke-width:7.5;stroke-linecap:round;stroke-linejoin:round;stroke-miterlimit:10;stroke-dasharray:none;stroke-opacity:1"
         id="path52" />
      <path
         d="m 2364.01,3552.35 c 0,0 10.33,17.27 31.27,2.64"
         style="fill:none;stroke:#5a3189;stroke-width:7.5;stroke-linecap:round;stroke-linejoin:round;stroke-miterlimit:10;stroke-dasharray:none;stroke-opacity:1"
         id="path54" />
      <path
         d="m 2432.54,3560.44 c 0,0 10.33,17.27 31.27,2.64"
         style="fill:none;stroke:#5a3189;stroke-width:7.5;stroke-linecap:round;stroke-linejoin:round;stroke-miterlimit:10;stroke-dasharray:none;stroke-opacity:1"
         id="path56" />
      <path
         d="m 2017.95,3692.31 c 0,0 139.28,197.45 299.28,14.81 0,0 -39.3,-90.32 -137.98,-106.19 -98.68,-15.88 -161.3,91.38 -161.3,91.38"
         style="fill:#ffffff;fill-opacity:1;fill-rule:nonzero;stroke:none"
         id="path58" />
      <g
         id="g60">
        <g
           id="g62"
           clip-path="url(#clipPath66)">
          <path
             d="m 2074.08,3677.51 c 6.18,-52.36 53.64,-89.79 106,-83.61 52.36,6.18 89.8,53.64 83.62,106 -6.19,52.37 -53.65,89.8 -106.01,83.62 -52.36,-6.19 -89.79,-53.65 -83.61,-106.01"
             style="fill:#5a3189;fill-opacity:1;fill-rule:nonzero;stroke:none"
             id="path68" />
        </g>
      </g>
      <path
         d="m 2313.9,3705.39 c -20.55,22.27 -44.07,40.94 -69.3,52.14 -25.1,11.72 -51.8,14.97 -78.35,12.04 -27.52,-2.9 -53.76,-11.78 -77.33,-25.24 -11.81,-6.82 -22.73,-15.27 -32.98,-24.73 -5.11,-4.74 -9.92,-9.86 -14.67,-15.13 -4.49,-5.22 -8.87,-11.45 -12.37,-16.45 l -2.6,-3.71 c -3.41,-4.87 -10.12,-6.05 -14.99,-2.64 -2.25,1.57 -3.71,3.86 -4.3,6.32 -3.5,14.72 -6.78,29.53 -9.05,44.74 -0.31,2.11 1.14,4.07 3.24,4.38 1.5,0.22 2.93,-0.45 3.74,-1.62 8.73,-12.66 16.45,-25.71 23.95,-38.86 L 2007,3696.6 c 2.56,9.17 6.01,16.26 9.81,23.99 3.94,7.44 8.29,14.75 13.43,21.48 10.13,13.6 22.33,25.89 36.29,35.98 28.04,20.03 61.73,31.99 95.57,34.38 34.64,2.9 71.3,-5.91 99.28,-25.86 28,-19.77 48.85,-46.79 59.17,-77.72 0.67,-1.98 -0.41,-4.12 -2.39,-4.79 -1.46,-0.48 -3,-0.03 -3.98,1.02 l -0.28,0.31"
         style="fill:#5a3189;fill-opacity:1;fill-rule:nonzero;stroke:none"
         id="path70" />
      <path
         d="m 2767.26,3780.79 c 0,0 -181.45,159.58 -294.5,-55.31 0,0 59.25,-78.68 158.91,-71.13 99.67,7.55 135.59,126.44 135.59,126.44"
         style="fill:#ffffff;fill-opacity:1;fill-rule:nonzero;stroke:none"
         id="path72" />
      <g
         id="g74">
        <g
           id="g76"
           clip-path="url(#clipPath80)">
          <path
             d="m 2716.11,3753.33 c 6.18,-52.36 -31.25,-99.82 -83.61,-106.01 -52.36,-6.18 -99.81,31.25 -106.01,83.62 -6.18,52.36 31.26,99.82 83.62,106 52.36,6.18 99.82,-31.25 106,-83.61"
             style="fill:#5a3189;fill-opacity:1;fill-rule:nonzero;stroke:none"
             id="path82" />
        </g>
      </g>
      <path
         d="m 2469.12,3726.4 c 2.94,32.44 16.94,63.53 39.54,89.25 22.55,25.9 56.1,43 90.44,48.3 33.45,5.61 69,1.93 101.01,-10.9 15.99,-6.43 30.74,-15.6 43.89,-26.31 13.27,-11.03 24.09,-23.14 33.69,-38.69 l -23.13,-6.72 c 1.69,8.65 3.15,17.3 5.02,25.94 1.85,8.64 3.76,17.27 6.17,25.89 0.58,2.05 2.7,3.24 4.75,2.67 1.45,-0.41 2.48,-1.61 2.74,-2.99 1.67,-8.79 2.83,-17.56 3.94,-26.33 1.11,-8.76 1.83,-17.51 2.77,-26.27 0.69,-6.5 -4.02,-12.34 -10.53,-13.04 -3.67,-0.39 -7.13,0.93 -9.57,3.33 l -3.02,3 c -9.05,8.98 -21.34,17.79 -33.18,24.54 -12.01,6.96 -24.6,12.58 -37.6,16.59 -25.98,7.7 -53.56,10.34 -81.02,6.8 -26.52,-3.28 -51.79,-12.66 -73.48,-29.93 -21.95,-16.79 -40.46,-40.47 -55.15,-66.95 l -0.2,-0.36 c -1.01,-1.83 -3.32,-2.49 -5.15,-1.48 -1.35,0.76 -2.06,2.21 -1.93,3.66"
         style="fill:#5a3189;fill-opacity:1;fill-rule:nonzero;stroke:none"
         id="path84" />
      <path
         d="m 2260.31,3466.04 c 0,0 162.39,4.83 321.44,37.91 0,0 -32.54,-134.39 -145.05,-147.68 -121.29,-14.32 -176.39,109.77 -176.39,109.77"
         style="fill:#e8e7e8;fill-opacity:1;fill-rule:nonzero;stroke:none"
         id="path86" />
      <path
         d="m 2744.82,3897.1 c 0,0 -30.83,38.6 -83.82,62.94 -52.99,24.34 -113.82,6.19 -154.88,3.68 -41.07,-2.52 -38.27,51.19 -9.36,60.96 28.9,9.77 142.16,13.54 193.91,-25.2 65.23,-48.81 74.78,-123.44 54.15,-102.38"
         style="fill:#5a3189;fill-opacity:1;fill-rule:nonzero;stroke:none"
         id="path88" />
      <path
         d="m 2592.71,4204.13 c 0,0 -449.58,33.97 -529.03,-409 0,0 -121.28,693.62 529.03,409"
         style="fill:#f14090;fill-opacity:1;fill-rule:nonzero;stroke:none"
         id="path90" />
      <path
         d="m 2180.8,3216.43 c 0,0 287.47,-114.83 538.93,63.64 l 1.46,-169.68 c 0,0 -204.16,-160.13 -546.5,-25.87 l 6.11,131.91"
         style="fill:#f14090;fill-opacity:1;fill-rule:nonzero;stroke:none"
         id="path92" />
      <path
         d="m 2248.79,3196.65 c 0,0 209.63,-57.05 408.05,44.95 0,0 -30.59,-109.73 -193.03,-128.92 -162.44,-19.18 -215.02,83.97 -215.02,83.97"
         style="fill:#5a3189;fill-opacity:1;fill-rule:nonzero;stroke:none"
         id="path94" />
      <path
         d="m 1988.21,3822.69 c -126.22,32.36 -125.74,-143.9 -125.74,-143.9 -5.72,-174.84 98.91,-181.73 98.91,-181.73 0,0 15.58,89.59 26.83,325.63 z m 568.78,399.92 c 0,0 -196.99,54.71 -347.47,-38.31 -150.49,-93.03 -139.1,-256.43 -174.57,-910.05 -17,-313.27 -83.82,-120.87 -109.23,-25.11 0,0 -12.65,117.54 -144.83,166.31 -101.46,37.44 -212.08,316.41 80.82,833.36 245.25,432.86 695.28,187.85 695.28,187.85 0,0 300.65,31.07 406.39,-363.41 105.74,-394.49 67.19,-870.36 -86.93,-982.22 0,0 -81.93,-39.98 -70.18,78.17 11.76,118.14 -51.72,144.83 -51.72,144.83 0,0 85.95,80.59 95.39,282.47 0,0 127.09,22.17 71.67,207.36 0,0 -289.94,60.03 -364.62,418.75"
         style="fill:#5a3189;fill-opacity:1;fill-rule:nonzero;stroke:none"
         id="path96" />
      <path
         d="m 1941.2,3479.88 c 0,-12.35 -10.01,-22.36 -22.36,-22.36 -12.35,0 -22.36,10.01 -22.36,22.36 0,12.34 10.01,67.35 22.36,67.35 12.35,0 22.36,-55.01 22.36,-67.35"
         style="fill:#fcd3a6;fill-opacity:1;fill-rule:nonzero;stroke:none"
         id="path98" />
      <path
         d="m 2909.93,3569.52 c 0,-12.34 -10,-22.35 -22.35,-22.35 -12.35,0 -22.36,10.01 -22.36,22.35 0,12.35 10.01,67.35 22.36,67.35 12.35,0 22.35,-55 22.35,-67.35"
         style="fill:#fcd3a6;fill-opacity:1;fill-rule:nonzero;stroke:none"
         id="path100" />
      <path
         d="m 1998.21,3851.16 c 0,0 23.39,4.84 98.67,28.87 86.39,27.59 104.16,46.33 139.57,67.27 35.42,20.93 57.38,-28.16 36.09,-50.01 -21.29,-21.87 -60.16,-37.9 -123.48,-50.9 -65.88,-13.53 -165.76,-18.27 -150.85,4.77"
         style="fill:#5a3189;fill-opacity:1;fill-rule:nonzero;stroke:none"
         id="path102" />
      <path
         d="M 1696.22,864.789 C 1456.54,537.801 1384.47,154.102 1359.72,-270.281 h 2168.52 c 0,740.711 -286.15,1135.07 -286.15,1135.07 l -19.02,286.651 H 1726.86 l -30.64,-286.651"
         style="fill:#6b75c2;fill-opacity:1;fill-rule:nonzero;stroke:none"
         id="path104" />
      <path
         d="m 3242.09,864.789 c 0,0 -788.98,-224.777 -1545.87,0"
         style="fill:none;stroke:#5a3189;stroke-width:7.5;stroke-linecap:round;stroke-linejoin:round;stroke-miterlimit:10;stroke-dasharray:none;stroke-opacity:1"
         id="path106" />
      <path
         d="M 2469.16,-270.281 V 56.6094"
         style="fill:none;stroke:#5a3189;stroke-width:7.5;stroke-linecap:round;stroke-linejoin:round;stroke-miterlimit:10;stroke-dasharray:none;stroke-opacity:1"
         id="path108" />
      <path
         d="m 2294.17,616.18 c 0,0 25.23,-466.809 31.54,-510.969 6.31,-44.1602 188.83,-53.0391 203.24,-48.6016"
         style="fill:none;stroke:#5a3189;stroke-width:7.5;stroke-linecap:round;stroke-linejoin:round;stroke-miterlimit:10;stroke-dasharray:none;stroke-opacity:1"
         id="path110" />
      <path
         d="m 1876.93,2934.7 c 0,0 729.05,70.28 1106.21,3.2 0,0 -8.71,-245.53 -522.17,-245.53 -513.46,0 -584.04,242.33 -584.04,242.33"
         style="fill:#f46ba7;fill-opacity:1;fill-rule:nonzero;stroke:none"
         id="path112" />
      <path
         d="m 1876.93,2934.7 c 0,0 -112.7,2.33 -269.22,-58.56 -44.49,-17.31 -63.54,-69.89 -40.72,-111.82 102.5,-188.29 338.2,-703.28 165.32,-1195.71 -163.75,-466.45 -266.06,-646.919 705.19,-646.919 993.13,0 913.95,159.359 773.74,646.919 -143.16,497.85 28.22,1003.54 105.85,1192.64 17.84,43.47 -5.49,92.78 -50.48,106.37 -86.57,26.13 -192.45,50.86 -283.47,70.28 0,0 -545.92,-262.71 -1106.21,-3.2"
         style="fill:#f79ad1;fill-opacity:1;fill-rule:nonzero;stroke:none"
         id="path114" />
      <path
         d="m 1732.31,1568.61 c -163.75,-466.45 -266.06,-646.919 705.19,-646.919 993.13,0 913.95,159.359 773.74,646.919 l -781.27,-365.14 -697.66,365.14"
         style="fill:#e375c1;fill-opacity:1;fill-rule:nonzero;stroke:none"
         id="path116" />
      <path
         d="m 1589.68,2866.15 c 0,0 -448.29,-213.76 -739.739,-1021.57 0,0 501.739,-172.47 913.349,-317.99 0,0 84.19,444.67 136.7,656.47 54.29,218.95 -171.81,745.53 -310.31,683.09"
         style="fill:#f79ad1;fill-opacity:1;fill-rule:nonzero;stroke:none"
         id="path118" />
      <path
         d="m 852.301,1849.04 c 0,0 698.849,-117.38 1372.639,-468 0,0 -11.37,-136.96 -84.44,-313.87 0,0 -593.4,-3.66 -1100.1,130.58 -449.974,119.23 -188.099,651.29 -188.099,651.29"
         style="fill:#f46ba7;fill-opacity:1;fill-rule:nonzero;stroke:none"
         id="path120" />
      <path
         d="m 1500.74,1110.44 c -149.05,19.27 -308.58,47.11 -460.34,87.31 -213.548,56.59 -266.771,206.15 -263.744,347.69 0,0 62.032,-295.34 724.084,-435"
         style="fill:#f14090;fill-opacity:1;fill-rule:nonzero;stroke:none"
         id="path122" />
      <path
         d="m 852.301,1849.04 c 0,0 294.179,-56.58 499.069,-121.44"
         style="fill:none;stroke:#5a3189;stroke-width:7.5;stroke-linecap:round;stroke-linejoin:round;stroke-miterlimit:10;stroke-dasharray:none;stroke-opacity:1"
         id="path124" />
      <path
         d="m 3260.31,2869.5 c 0,0 400.36,-101.94 761.15,-1024.92 0,0 -501.74,-172.47 -913.35,-317.99 0,0 -84.18,444.67 -136.7,656.47 -54.29,218.95 112.23,724.82 288.9,686.44"
         style="fill:#f79ad1;fill-opacity:1;fill-rule:nonzero;stroke:none"
         id="path126" />
      <path
         d="m 4019.1,1849.04 c 0,0 -698.85,-117.38 -1372.64,-468 0,0 -38.46,-138.45 34.61,-315.37 0,0 643.23,-2.16 1149.93,132.08 449.98,119.23 188.1,651.29 188.1,651.29"
         style="fill:#f46ba7;fill-opacity:1;fill-rule:nonzero;stroke:none"
         id="path128" />
      <path
         d="m 3339.26,1107.57 c 161.36,19.54 333.23,48.19 491.74,90.18 196.86,52.17 257.48,183.34 263.38,314.42 0,0 -56.79,-256.4 -755.12,-404.6"
         style="fill:#f14090;fill-opacity:1;fill-rule:nonzero;stroke:none"
         id="path130" />
      <path
         d="m 3310.49,1663.89 c 0,0 -198.27,165.64 -250.6,366.12 0,0 -13.23,-414.67 -323.95,-603.82 0,0 352.46,173.59 574.55,237.7"
         style="fill:#e375c1;fill-opacity:1;fill-rule:nonzero;stroke:none"
         id="path132" />
      <path
         d="m 1547.29,1665.76 c 0,0 211.56,163.77 263.89,364.25 0,0 13.23,-414.67 323.95,-603.82 0,0 -352.13,163.81 -587.84,239.57"
         style="fill:#e375c1;fill-opacity:1;fill-rule:nonzero;stroke:none"
         id="path134" />
      <path
         d="m 1704.29,1610.27 c 0,0 86.93,191.29 157.42,750.49"
         style="fill:none;stroke:#5a3189;stroke-width:7.5;stroke-linecap:round;stroke-linejoin:round;stroke-miterlimit:10;stroke-dasharray:none;stroke-opacity:1"
         id="path136" />
      <path
         d="m 3165.92,1613.02 c 0,0 -85.74,188.54 -156.23,747.74"
         style="fill:none;stroke:#5a3189;stroke-width:7.5;stroke-linecap:round;stroke-linejoin:round;stroke-miterlimit:10;stroke-dasharray:none;stroke-opacity:1"
         id="path138" />
      <path
         d="m 3134.36,1705.4 -79.15,-138.15 111.9,43.02 z"
         style="fill:#5a3189;fill-opacity:1;fill-rule:nonzero;stroke:none"
         id="path140" />
      <path
         d="m 2921.55,1511.7 c 0,0 297.83,136.22 599.76,216.28"
         style="fill:none;stroke:#5a3189;stroke-width:7.5;stroke-linecap:round;stroke-linejoin:round;stroke-miterlimit:10;stroke-dasharray:none;stroke-opacity:1"
         id="path142" />
      <path
         d="m 1737.04,1705.4 79.15,-138.15 -111.9,43.02 z"
         style="fill:#5a3189;fill-opacity:1;fill-rule:nonzero;stroke:none"
         id="path144" />
      <path
         d="m 1774.38,2923.85 c 0,0 145.51,-231.48 686.59,-231.48 452.9,0 627.17,222.07 627.17,222.07"
         style="fill:none;stroke:#5a3189;stroke-width:7.5;stroke-linecap:round;stroke-linejoin:round;stroke-miterlimit:10;stroke-dasharray:none;stroke-opacity:1"
         id="path146" />
      <path
         d="m 2214.92,1421.92 c 0,0 -38.45,-72.7 -125.28,-72.7 -86.82,0 -198.46,-267.01 50.86,-282.05 249.32,-15.04 299.92,97.77 293.72,195.55 -6.2,97.78 0,712.52 0,712.52 0,0 2.16,116.3 -68,116.3 -94.13,0 -70.69,-286.81 -93.42,-440.01 -22.74,-153.19 -57.88,-229.61 -57.88,-229.61"
         style="fill:#f46ba7;fill-opacity:1;fill-rule:nonzero;stroke:none"
         id="path148" />
      <path
         d="m 2433.74,1922.82 c 0,0 -0.55,95.26 -62.23,95.26 -61.69,0 -65.86,-317.04 -111.44,-439.41"
         style="fill:none;stroke:#5a3189;stroke-width:7.5;stroke-linecap:round;stroke-linejoin:round;stroke-miterlimit:10;stroke-dasharray:none;stroke-opacity:1"
         id="path150" />
      <path
         d="m 2432.84,1812.14 c 0,0 6.91,100.46 -50,100.46 -64.7,0 -36.46,-201.21 -83.6,-341"
         style="fill:none;stroke:#5a3189;stroke-width:7.5;stroke-linecap:round;stroke-linejoin:round;stroke-miterlimit:10;stroke-dasharray:none;stroke-opacity:1"
         id="path152" />
      <path
         d="m 2641.4,1421.92 c 0,0 38.44,-72.7 125.28,-72.7 86.83,0 198.46,-267.01 -50.86,-282.05 -249.32,-15.04 -299.92,97.77 -293.72,195.55 6.2,97.78 0,712.52 0,712.52 0,0 -2.16,116.3 68.01,116.3 94.12,0 70.68,-286.81 93.42,-440.01 22.73,-153.19 57.87,-229.61 57.87,-229.61"
         style="fill:#f46ba7;fill-opacity:1;fill-rule:nonzero;stroke:none"
         id="path154" />
      <path
         d="m 2537.13,1085.76 c 0,0 -94.2,287.94 -112.24,602.89 0,0 -16.92,-458.32 -128.84,-610.04 0,0 100.7,12.8 133.92,124.86 0,0 15.55,-99.4 107.16,-117.71"
         style="fill:#f14090;fill-opacity:1;fill-rule:nonzero;stroke:none"
         id="path156" />
      <path
         d="m 2422.59,1922.82 c 0,0 0.54,95.26 62.22,95.26 61.68,0 65.85,-317.04 111.44,-439.41"
         style="fill:none;stroke:#5a3189;stroke-width:7.5;stroke-linecap:round;stroke-linejoin:round;stroke-miterlimit:10;stroke-dasharray:none;stroke-opacity:1"
         id="path158" />
      <path
         d="m 2423.48,1812.14 c 0,0 -6.91,100.46 50,100.46 64.7,0 36.46,-201.21 83.6,-341"
         style="fill:none;stroke:#5a3189;stroke-width:7.5;stroke-linecap:round;stroke-linejoin:round;stroke-miterlimit:10;stroke-dasharray:none;stroke-opacity:1"
         id="path160" />
      <path
         d="m 2424.89,1780.93 v -497.45 c 0,0 -9.91,-108.74 43.84,-156.72"
         style="fill:none;stroke:#5a3189;stroke-width:7.5;stroke-linecap:round;stroke-linejoin:round;stroke-miterlimit:10;stroke-dasharray:none;stroke-opacity:1"
         id="path162" />
      <path
         d="m 2644.95,1065.81 c 0,0 297.51,-19.51 665.75,38.39"
         style="fill:none;stroke:#5a3189;stroke-width:7.5;stroke-linecap:round;stroke-linejoin:round;stroke-miterlimit:10;stroke-dasharray:none;stroke-opacity:1"
         id="path164" />
      <path
         d="m 2211.37,1065.81 c 0,0 -243.83,-7.99 -510.08,22.81"
         style="fill:none;stroke:#5a3189;stroke-width:7.5;stroke-linecap:round;stroke-linejoin:round;stroke-miterlimit:10;stroke-dasharray:none;stroke-opacity:1"
         id="path166" />
      <path
         d="m 2639.67,1981.41 c 0,0 37.83,68.08 126.09,73.13"
         style="fill:none;stroke:#5a3189;stroke-width:7.5;stroke-linecap:round;stroke-linejoin:round;stroke-miterlimit:10;stroke-dasharray:none;stroke-opacity:1"
         id="path168" />
      <path
         d="m 2564.01,2173.07 c 0,0 47.91,126.09 138.7,143.75"
         style="fill:none;stroke:#5a3189;stroke-width:7.5;stroke-linecap:round;stroke-linejoin:round;stroke-miterlimit:10;stroke-dasharray:none;stroke-opacity:1"
         id="path170" />
      <path
         d="m 2395.15,2200.81 c 0,0 -30.36,176.52 -121.15,226.96"
         style="fill:none;stroke:#5a3189;stroke-width:7.5;stroke-linecap:round;stroke-linejoin:round;stroke-miterlimit:10;stroke-dasharray:none;stroke-opacity:1"
         id="path172" />
      <path
         d="m 2230.58,2083.65 c 0,0 -33.4,83.02 -151.59,85.46"
         style="fill:none;stroke:#5a3189;stroke-width:7.5;stroke-linecap:round;stroke-linejoin:round;stroke-miterlimit:10;stroke-dasharray:none;stroke-opacity:1"
         id="path174" />
      <path
         d="m 2528.36,2396.74 c 0,0 -14.63,-42.09 -22.95,-73.36"
         style="fill:none;stroke:#5a3189;stroke-width:7.5;stroke-linecap:round;stroke-linejoin:round;stroke-miterlimit:10;stroke-dasharray:none;stroke-opacity:1"
         id="path176" />
      <path
         d="m 2254.21,2229.44 c 0,0 39.52,-37.94 45.84,-64.81"
         style="fill:none;stroke:#5a3189;stroke-width:7.5;stroke-linecap:round;stroke-linejoin:round;stroke-miterlimit:10;stroke-dasharray:none;stroke-opacity:1"
         id="path178" />
      <path
         d="m 2288.4,2323.38 c 0,-10.67 -8.65,-19.33 -19.32,-19.33 -10.67,0 -19.32,8.66 -19.32,19.33 0,10.66 8.65,19.32 19.32,19.32 10.67,0 19.32,-8.66 19.32,-19.32 z"
         style="fill:none;stroke:#5a3189;stroke-width:7.5;stroke-linecap:round;stroke-linejoin:round;stroke-miterlimit:10;stroke-dasharray:none;stroke-opacity:1"
         id="path180" />
      <path
         d="m 2678.31,2173.07 c 0,-10.68 -8.64,-19.33 -19.32,-19.33 -10.67,0 -19.32,8.65 -19.32,19.33 0,10.67 8.65,19.32 19.32,19.32 10.68,0 19.32,-8.65 19.32,-19.32 z"
         style="fill:none;stroke:#5a3189;stroke-width:7.5;stroke-linecap:round;stroke-linejoin:round;stroke-miterlimit:10;stroke-dasharray:none;stroke-opacity:1"
         id="path182" />
      <path
         d="m 2474.66,2239.89 c 0,-7.88 -6.39,-14.27 -14.28,-14.27 -7.88,0 -14.28,6.39 -14.28,14.27 0,7.88 6.4,14.28 14.28,14.28 7.89,0 14.28,-6.4 14.28,-14.28"
         style="fill:#5a3189;fill-opacity:1;fill-rule:nonzero;stroke:none"
         id="path184" />
      <path
         d="m 2619.41,2067.15 c 0,-7.88 -6.39,-14.28 -14.27,-14.28 -7.89,0 -14.28,6.4 -14.28,14.28 0,7.88 6.39,14.28 14.28,14.28 7.88,0 14.27,-6.4 14.27,-14.28"
         style="fill:#5a3189;fill-opacity:1;fill-rule:nonzero;stroke:none"
         id="path186" />
      <path
         d="m 2169.06,2280.25 c 0,-7.88 -6.39,-14.27 -14.27,-14.27 -7.89,0 -14.28,6.39 -14.28,14.27 0,7.88 6.39,14.28 14.28,14.28 7.88,0 14.27,-6.4 14.27,-14.28"
         style="fill:#5a3189;fill-opacity:1;fill-rule:nonzero;stroke:none"
         id="path188" />
      <path
         d="m 2208.38,1981.41 c 0,-10.68 -8.65,-19.33 -19.32,-19.33 -10.68,0 -19.33,8.65 -19.33,19.33 0,10.67 8.65,19.32 19.33,19.32 10.67,0 19.32,-8.65 19.32,-19.32 z"
         style="fill:none;stroke:#5a3189;stroke-width:7.5;stroke-linecap:round;stroke-linejoin:round;stroke-miterlimit:10;stroke-dasharray:none;stroke-opacity:1"
         id="path190" />
      <path
         d="m 2509.42,2823.8 c 0,0 -247.25,-28.28 -489.41,55.29"
         style="fill:none;stroke:#5a3189;stroke-width:7.5;stroke-linecap:round;stroke-linejoin:round;stroke-miterlimit:10;stroke-dasharray:none;stroke-opacity:1"
         id="path192" />
    </g>
  </g>
</svg>
