<svg width="90" height="23" viewBox="0 0 90 23" fill="none" xmlns="http://www.w3.org/2000/svg">
<path d="M22.1768 15L19.2635 4.81818H21.6151L23.3004 11.8928H23.3849L25.2443 4.81818H27.2578L29.1122 11.9077H29.2017L30.8871 4.81818H33.2386L30.3253 15H28.2273L26.2884 8.34304H26.2088L24.2749 15H22.1768ZM36.4689 10.5852V15H34.351V4.81818H36.4093V8.71094H36.4988C36.6711 8.26018 36.9495 7.9072 37.334 7.65199C37.7185 7.39347 38.2007 7.2642 38.7807 7.2642C39.311 7.2642 39.7734 7.38021 40.1678 7.61222C40.5655 7.84091 40.8738 8.17069 41.0925 8.60156C41.3146 9.02912 41.4239 9.54119 41.4206 10.1378V15H39.3027V10.5156C39.306 10.045 39.1867 9.67874 38.9448 9.4169C38.7061 9.15507 38.3714 9.02415 37.9405 9.02415C37.6522 9.02415 37.397 9.08546 37.1749 9.2081C36.9561 9.33073 36.7838 9.50971 36.6578 9.74503C36.5352 9.97704 36.4722 10.2571 36.4689 10.5852ZM45.2649 15.1442C44.7777 15.1442 44.3435 15.0597 43.9624 14.8906C43.5812 14.7183 43.2796 14.4647 43.0575 14.13C42.8388 13.7919 42.7294 13.371 42.7294 12.8672C42.7294 12.4429 42.8073 12.0866 42.9631 11.7983C43.1188 11.5099 43.331 11.2779 43.5994 11.1023C43.8679 10.9266 44.1728 10.794 44.5142 10.7045C44.8589 10.6151 45.2202 10.5521 45.598 10.5156C46.0421 10.4692 46.4001 10.4261 46.6719 10.3864C46.9437 10.3433 47.1409 10.2803 47.2635 10.1974C47.3861 10.1146 47.4474 9.99195 47.4474 9.82955V9.79972C47.4474 9.48485 47.348 9.24124 47.1491 9.06889C46.9536 8.89654 46.6752 8.81037 46.3139 8.81037C45.9328 8.81037 45.6295 8.89489 45.4041 9.06392C45.1787 9.22964 45.0296 9.43845 44.9567 9.69034L42.9979 9.53125C43.0973 9.06723 43.2929 8.66619 43.5845 8.32812C43.8762 7.98674 44.2524 7.7249 44.7131 7.54261C45.1771 7.35701 45.714 7.2642 46.3239 7.2642C46.7481 7.2642 47.1541 7.31392 47.5419 7.41335C47.933 7.51278 48.2794 7.6669 48.581 7.87571C48.8859 8.08452 49.1262 8.35298 49.3018 8.68111C49.4775 9.00592 49.5653 9.39536 49.5653 9.84943V15H47.5568V13.9411H47.4972C47.3745 14.1797 47.2105 14.3902 47.005 14.5724C46.7995 14.7514 46.5526 14.8923 46.2642 14.995C45.9759 15.0945 45.6428 15.1442 45.2649 15.1442ZM45.8714 13.6825C46.183 13.6825 46.4581 13.6212 46.6967 13.4986C46.9354 13.3726 47.1226 13.2036 47.2585 12.9915C47.3944 12.7794 47.4624 12.5391 47.4624 12.2706V11.4602C47.3961 11.5033 47.3049 11.5431 47.1889 11.5795C47.0762 11.6127 46.9486 11.6442 46.8061 11.674C46.6636 11.7005 46.5211 11.7254 46.3786 11.7486C46.236 11.7685 46.1068 11.7867 45.9908 11.8033C45.7422 11.8397 45.5251 11.8977 45.3395 11.9773C45.1539 12.0568 45.0097 12.1645 44.907 12.3004C44.8042 12.433 44.7528 12.5987 44.7528 12.7976C44.7528 13.0859 44.8572 13.3063 45.0661 13.4588C45.2782 13.608 45.5466 13.6825 45.8714 13.6825ZM55.2702 7.36364V8.95455H50.6715V7.36364H55.2702ZM51.7156 5.53409H53.8335V12.6534C53.8335 12.849 53.8633 13.0014 53.9229 13.1108C53.9826 13.2169 54.0655 13.2914 54.1715 13.3345C54.2809 13.3776 54.4068 13.3991 54.5494 13.3991C54.6488 13.3991 54.7482 13.3909 54.8477 13.3743C54.9471 13.3544 55.0233 13.3395 55.0763 13.3295L55.4094 14.9055C55.3034 14.9387 55.1542 14.9768 54.962 15.0199C54.7698 15.0663 54.5361 15.0945 54.261 15.1044C53.7506 15.1243 53.3031 15.0563 52.9187 14.9006C52.5375 14.7448 52.2409 14.5028 52.0288 14.1747C51.8166 13.8466 51.7122 13.4323 51.7156 12.9318V5.53409ZM62.9078 9.54119L60.9689 9.66051C60.9358 9.49479 60.8645 9.34564 60.7551 9.21307C60.6458 9.07718 60.5016 8.96946 60.3226 8.88991C60.147 8.80705 59.9365 8.76562 59.6912 8.76562C59.3631 8.76562 59.0864 8.83523 58.861 8.97443C58.6356 9.11032 58.5229 9.29261 58.5229 9.52131C58.5229 9.7036 58.5958 9.85772 58.7417 9.98366C58.8875 10.1096 59.1377 10.2107 59.4924 10.2869L60.8745 10.5653C61.6169 10.7178 62.1704 10.9631 62.535 11.3011C62.8996 11.6392 63.0819 12.0833 63.0819 12.6335C63.0819 13.134 62.9344 13.5732 62.6394 13.951C62.3477 14.3288 61.9467 14.6238 61.4363 14.8359C60.9292 15.0447 60.3442 15.1491 59.6813 15.1491C58.6704 15.1491 57.865 14.9387 57.2651 14.5178C56.6685 14.0935 56.3188 13.5168 56.2161 12.7876L58.2992 12.6783C58.3622 12.9865 58.5146 13.2218 58.7566 13.3842C58.9985 13.5433 59.3084 13.6229 59.6863 13.6229C60.0575 13.6229 60.3558 13.5516 60.5811 13.4091C60.8098 13.2633 60.9258 13.076 60.9292 12.8473C60.9258 12.6551 60.8446 12.4976 60.6855 12.375C60.5265 12.2491 60.2812 12.1529 59.9498 12.0866L58.6273 11.8232C57.8816 11.674 57.3264 11.4155 56.9618 11.0476C56.6006 10.6797 56.4199 10.2107 56.4199 9.64062C56.4199 9.15009 56.5525 8.72751 56.8176 8.37287C57.0861 8.01823 57.4623 7.74479 57.9462 7.55256C58.4334 7.36032 59.0035 7.2642 59.6564 7.2642C60.6209 7.2642 61.3799 7.46804 61.9334 7.87571C62.4902 8.28338 62.815 8.83854 62.9078 9.54119ZM66.593 15.1442C66.1058 15.1442 65.6716 15.0597 65.2905 14.8906C64.9093 14.7183 64.6077 14.4647 64.3857 14.13C64.1669 13.7919 64.0575 13.371 64.0575 12.8672C64.0575 12.4429 64.1354 12.0866 64.2912 11.7983C64.447 11.5099 64.6591 11.2779 64.9276 11.1023C65.196 10.9266 65.5009 10.794 65.8423 10.7045C66.187 10.6151 66.5483 10.5521 66.9261 10.5156C67.3703 10.4692 67.7282 10.4261 68 10.3864C68.2718 10.3433 68.469 10.2803 68.5916 10.1974C68.7143 10.1146 68.7756 9.99195 68.7756 9.82955V9.79972C68.7756 9.48485 68.6761 9.24124 68.4773 9.06889C68.2817 8.89654 68.0033 8.81037 67.642 8.81037C67.2609 8.81037 66.9576 8.89489 66.7322 9.06392C66.5069 9.22964 66.3577 9.43845 66.2848 9.69034L64.326 9.53125C64.4254 9.06723 64.621 8.66619 64.9126 8.32812C65.2043 7.98674 65.5805 7.7249 66.0412 7.54261C66.5052 7.35701 67.0421 7.2642 67.652 7.2642C68.0762 7.2642 68.4822 7.31392 68.87 7.41335C69.2611 7.51278 69.6075 7.6669 69.9091 7.87571C70.214 8.08452 70.4543 8.35298 70.63 8.68111C70.8056 9.00592 70.8935 9.39536 70.8935 9.84943V15H68.8849V13.9411H68.8253C68.7027 14.1797 68.5386 14.3902 68.3331 14.5724C68.1276 14.7514 67.8807 14.8923 67.5923 14.995C67.304 15.0945 66.9709 15.1442 66.593 15.1442ZM67.1996 13.6825C67.5111 13.6825 67.7862 13.6212 68.0249 13.4986C68.2635 13.3726 68.4508 13.2036 68.5866 12.9915C68.7225 12.7794 68.7905 12.5391 68.7905 12.2706V11.4602C68.7242 11.5033 68.633 11.5431 68.517 11.5795C68.4044 11.6127 68.2768 11.6442 68.1342 11.674C67.9917 11.7005 67.8492 11.7254 67.7067 11.7486C67.5642 11.7685 67.4349 11.7867 67.3189 11.8033C67.0703 11.8397 66.8532 11.8977 66.6676 11.9773C66.482 12.0568 66.3378 12.1645 66.2351 12.3004C66.1323 12.433 66.081 12.5987 66.081 12.7976C66.081 13.0859 66.1854 13.3063 66.3942 13.4588C66.6063 13.608 66.8748 13.6825 67.1996 13.6825ZM72.5366 17.8636V7.36364H74.6246V8.64631H74.7191C74.8119 8.44081 74.9461 8.23201 75.1218 8.01989C75.3008 7.80445 75.5328 7.62547 75.8178 7.48295C76.1062 7.33712 76.4641 7.2642 76.8917 7.2642C77.4485 7.2642 77.9622 7.41004 78.4329 7.7017C78.9035 7.99006 79.2797 8.4259 79.5614 9.00923C79.8432 9.58925 79.984 10.3168 79.984 11.1918C79.984 12.0436 79.8465 12.7628 79.5714 13.3494C79.2996 13.9328 78.9284 14.3752 78.4577 14.6768C77.9904 14.9751 77.4667 15.1243 76.8867 15.1243C76.4757 15.1243 76.1261 15.0563 75.8377 14.9205C75.5527 14.7846 75.319 14.6139 75.1367 14.4084C74.9544 14.1996 74.8152 13.9891 74.7191 13.777H74.6545V17.8636H72.5366ZM74.6097 11.1818C74.6097 11.6359 74.6727 12.032 74.7987 12.37C74.9246 12.7081 75.1069 12.9716 75.3455 13.1605C75.5842 13.3461 75.8742 13.4389 76.2156 13.4389C76.5603 13.4389 76.8519 13.3445 77.0906 13.1555C77.3292 12.9633 77.5098 12.6982 77.6325 12.3601C77.7584 12.0187 77.8214 11.6259 77.8214 11.1818C77.8214 10.741 77.7601 10.3532 77.6374 10.0185C77.5148 9.68371 77.3342 9.42187 77.0955 9.23295C76.8569 9.04403 76.5636 8.94957 76.2156 8.94957C75.8709 8.94957 75.5792 9.04072 75.3406 9.22301C75.1052 9.4053 74.9246 9.66383 74.7987 9.99858C74.6727 10.3333 74.6097 10.7277 74.6097 11.1818ZM81.396 17.8636V7.36364H83.484V8.64631H83.5785C83.6713 8.44081 83.8055 8.23201 83.9812 8.01989C84.1602 7.80445 84.3922 7.62547 84.6772 7.48295C84.9656 7.33712 85.3235 7.2642 85.7511 7.2642C86.3079 7.2642 86.8216 7.41004 87.2923 7.7017C87.7629 7.99006 88.1391 8.4259 88.4208 9.00923C88.7025 9.58925 88.8434 10.3168 88.8434 11.1918C88.8434 12.0436 88.7058 12.7628 88.4308 13.3494C88.159 13.9328 87.7878 14.3752 87.3171 14.6768C86.8498 14.9751 86.3261 15.1243 85.7461 15.1243C85.3351 15.1243 84.9854 15.0563 84.6971 14.9205C84.4121 14.7846 84.1784 14.6139 83.9961 14.4084C83.8138 14.1996 83.6746 13.9891 83.5785 13.777H83.5138V17.8636H81.396ZM83.4691 11.1818C83.4691 11.6359 83.5321 12.032 83.658 12.37C83.784 12.7081 83.9663 12.9716 84.2049 13.1605C84.4435 13.3461 84.7335 13.4389 85.0749 13.4389C85.4196 13.4389 85.7113 13.3445 85.9499 13.1555C86.1886 12.9633 86.3692 12.6982 86.4918 12.3601C86.6178 12.0187 86.6808 11.6259 86.6808 11.1818C86.6808 10.741 86.6194 10.3532 86.4968 10.0185C86.3742 9.68371 86.1935 9.42187 85.9549 9.23295C85.7163 9.04403 85.4229 8.94957 85.0749 8.94957C84.7302 8.94957 84.4386 9.04072 84.1999 9.22301C83.9646 9.4053 83.784 9.66383 83.658 9.99858C83.5321 10.3333 83.4691 10.7277 83.4691 11.1818Z" fill="#2CB742"/>
<path d="M11.8388 11.1941C11.8076 11.1791 10.6411 10.6047 10.4339 10.5301C10.3492 10.4997 10.2586 10.4701 10.1622 10.4701C10.0047 10.4701 9.87236 10.5486 9.7693 10.7028C9.65278 10.8759 9.30005 11.2883 9.19106 11.4114C9.17683 11.4277 9.1574 11.4471 9.14576 11.4471C9.13532 11.4471 8.9548 11.3728 8.90015 11.349C7.64888 10.8055 6.69912 9.49844 6.56888 9.27803C6.55028 9.24634 6.5495 9.23195 6.54935 9.23195C6.55392 9.21517 6.596 9.17299 6.61771 9.15122C6.68125 9.08836 6.75008 9.00551 6.81667 8.92535C6.84821 8.88738 6.87979 8.84935 6.9108 8.81351C7.00743 8.70109 7.05044 8.61382 7.10031 8.51273L7.12644 8.46021C7.24821 8.21828 7.14421 8.01413 7.1106 7.94821C7.08301 7.89304 6.59049 6.70436 6.53813 6.57948C6.41221 6.27813 6.24582 6.13782 6.0146 6.13782C5.99314 6.13782 6.0146 6.13782 5.92462 6.14161C5.81506 6.14623 5.21844 6.22478 4.95465 6.39106C4.67491 6.56743 4.20166 7.12961 4.20166 8.11828C4.20166 9.0081 4.76634 9.84826 5.00878 10.1678C5.0148 10.1758 5.02587 10.1922 5.04192 10.2157C5.97039 11.5716 7.12784 12.5765 8.30119 13.0452C9.4308 13.4965 9.96571 13.5486 10.2698 13.5486H10.2699C10.3977 13.5486 10.4999 13.5386 10.5902 13.5297L10.6474 13.5243C11.0377 13.4897 11.8952 13.0453 12.0903 12.5032C12.2439 12.0763 12.2845 11.6098 12.1822 11.4405C12.1122 11.3253 11.9915 11.2674 11.8388 11.1941Z" fill="#2CB742"/>
<path d="M8.14201 2C3.80871 2 0.283313 5.49891 0.283313 9.79964C0.283313 11.1906 0.655572 12.5523 1.36077 13.7439L0.0110009 17.7255C-0.0141419 17.7997 0.00455936 17.8818 0.0594685 17.9377C0.0991048 17.9782 0.152871 18 0.20778 18C0.228819 18 0.250014 17.9968 0.270689 17.9902L4.42238 16.671C5.55848 17.278 6.84253 17.5984 8.14207 17.5984C12.4749 17.5984 16 14.0999 16 9.79964C16 5.49891 12.4749 2 8.14201 2ZM8.14201 15.9737C6.91921 15.9737 5.73484 15.6206 4.71677 14.9526C4.68253 14.9301 4.64279 14.9185 4.60279 14.9185C4.58165 14.9185 4.56046 14.9218 4.53983 14.9283L2.46009 15.5894L3.13147 13.6087C3.15318 13.5446 3.14233 13.4739 3.10233 13.4192C2.32705 12.3599 1.91723 11.1083 1.91723 9.79964C1.91723 6.39481 4.70965 3.62473 8.14196 3.62473C11.5739 3.62473 14.366 6.39481 14.366 9.79964C14.366 13.2041 11.574 15.9737 8.14201 15.9737Z" fill="#2CB742"/>
</svg>
