<svg width="668" height="684" viewBox="0 0 668 684" fill="none" xmlns="http://www.w3.org/2000/svg">
<path d="M600.667 683.333H67.3334C30.6667 683.333 0.666749 653.333 0.666748 616.667V268.333C0.666748 246.667 10.6667 226.667 29.0001 213.333L334 0L639 213.333C657.333 225 667.333 246.667 667.333 268.333V616.667C667.333 653.333 637.333 683.333 600.667 683.333Z" fill="#78909C"/>
<path d="M167.333 16.6667H500.667V533.333H167.333V16.6667Z" fill="#AED581"/>
<path d="M150.667 0V550H517.333V0H150.667ZM484 516.667H184V33.3333H484V516.667Z" fill="#558B2F"/>
<path d="M500.667 50.0001C500.667 78.3334 495.667 100 467.333 100C439 100 417.333 78.3334 417.333 50.0001C417.333 21.6667 439 16.6667 467.333 16.6667C495.667 16.6667 500.667 21.6667 500.667 50.0001ZM200.667 16.6667C229 16.6667 250.667 21.6667 250.667 50.0001C250.667 78.3334 229 100 200.667 100C172.333 100 167.333 78.3334 167.333 50.0001C167.333 21.6667 172.333 16.6667 200.667 16.6667Z" fill="#558B2F"/>
<path d="M300.667 133.333C300.667 142.174 304.179 150.652 310.43 156.904C316.681 163.155 325.16 166.667 334 166.667C342.841 166.667 351.319 163.155 357.57 156.904C363.821 150.652 367.333 142.174 367.333 133.333C367.333 124.493 363.821 116.014 357.57 109.763C351.319 103.512 342.841 100 334 100C325.16 100 316.681 103.512 310.43 109.763C304.179 116.014 300.667 124.493 300.667 133.333Z" fill="#558B2F"/>
<path d="M234 333.333C234 359.855 244.536 385.29 263.289 404.044C282.043 422.798 307.478 433.333 334 433.333C360.522 433.333 385.957 422.798 404.711 404.044C423.464 385.29 434 359.855 434 333.333C434 306.812 423.464 281.376 404.711 262.623C385.957 243.869 360.522 233.333 334 233.333C307.478 233.333 282.043 243.869 263.289 262.623C244.536 281.376 234 306.812 234 333.333Z" fill="#558B2F"/>
<path d="M600.667 683.333H67.3334C30.6667 683.333 0.666749 653.333 0.666748 616.667V283.333L334 500L667.333 283.333V616.667C667.333 653.333 637.333 683.333 600.667 683.333Z" fill="#CFD8DC"/>
</svg>
